Coordinates
version=1
nRows=34
nColumns=38
inDegrees=no

Units are S.I. units (second, meters, Newtons, ...)
If the header above contains a line with 'inDegrees', this indicates whether rotational values are in degrees (yes) or radians (no).

endheader
time	pelvis_tilt	pelvis_list	pelvis_rotation	pelvis_tx	pelvis_ty	pelvis_tz	hip_flexion_r	hip_adduction_r	hip_rotation_r	knee_angle_r	ankle_angle_r	subtalar_angle_r	mtp_angle_r	hip_flexion_l	hip_adduction_l	hip_rotation_l	knee_angle_l	ankle_angle_l	subtalar_angle_l	mtp_angle_l	lumbar_extension	lumbar_bending	lumbar_rotation	arm_flex_r	arm_add_r	arm_rot_r	elbow_flex_r	pro_sup_r	wrist_flex_r	wrist_dev_r	arm_flex_l	arm_add_l	arm_rot_l	elbow_flex_l	pro_sup_l	wrist_flex_l	wrist_dev_l
0	-0.600098	1.53176	-0.914178	0.937444	1.78205	1.06227	-0.132961	0.0519579	-0.28323	0.122493	-0.075637	0	0	0.294798	-0.0924156	-0.27851	0.662391	-0.0514128	0	0	-0.403598	0.0017151	0.110057	-0.127728	-0.43979	0.357183	0.739176	0.852407	0	0	0.0725171	-0.472704	0.240683	0.667341	1.32831	0	0
0.01	-0.662957	1.53235	-0.860145	0.936477	1.77174	1.06172	-0.142611	0.0514042	-0.26955	0.125855	-0.0745046	0	0	0.300165	-0.0887577	-0.287524	0.599053	-0.0605898	0	0	-0.403628	-0.000974027	0.130088	-0.137596	-0.441516	0.341312	0.747824	0.853593	0	0	0.0840073	-0.466575	0.252541	0.659573	1.33848	0	0
0.02	-1.8217	1.55269	0.285717	0.936331	1.76177	1.05718	-0.161267	0.00889526	-0.0653477	0	-0.121364	0	0	0.350238	-0.0716018	-0.24427	0.477714	-0.102226	0	0	-0.366057	-0.0120429	0.143749	-0.146539	-0.439851	0.328539	0.748043	0.858037	0	0	0.0842552	-0.460361	0.259803	0.648932	1.34723	0	0
0.03	-1.89401	1.56335	0.34278	0.93515	1.74925	1.05632	-0.18245	-0.0351246	-0.0594143	0.0285277	-0.12016	0	0	0.331239	-0.0547218	-0.321601	0.451584	-0.0932469	0	0	-0.368333	-0.0280719	0.153223	-0.149657	-0.438705	0.322589	0.753238	0.862005	0	0	0.0783074	-0.460813	0.25921	0.649953	1.34918	0	0
0.04	-0.805844	1.53238	-0.74464	0.933459	1.7363	1.05919	-0.174968	0.0501008	-0.266423	0.12673	-0.079049	0	0	0.296176	-0.0751113	-0.343578	0.382757	-0.107721	0	0	-0.405421	-0.00787428	0.159883	-0.148457	-0.441869	0.314432	0.763909	0.867124	0	0	0.0810126	-0.458379	0.260259	0.649689	1.34928	0	0
0.05	-0.899453	1.53278	-0.65961	0.932542	1.72412	1.05759	-0.183278	0.0488486	-0.267779	0.131355	-0.0742388	0	0	0.294004	-0.0693357	-0.355674	0.303318	-0.120224	0	0	-0.403564	-0.00899464	0.166486	-0.150893	-0.44264	0.309787	0.769181	0.87047	0	0	0.0759112	-0.456781	0.25933	0.648215	1.34821	0	0
0.06	-1.02951	1.53158	-0.536714	0.931766	1.71189	1.0558	-0.200221	0.0551695	-0.24896	0.110476	-0.0768297	0	0	0.293056	-0.0652242	-0.360381	0.232278	-0.137892	0	0	-0.401319	-0.00764187	0.171842	-0.153269	-0.443312	0.304367	0.774216	0.874986	0	0	0.0706791	-0.455212	0.25861	0.646459	1.3464	0	0
0.07	-1.16008	1.52992	-0.411856	0.931032	1.69945	1.0536	-0.194394	0.0512227	-0.284832	0.144532	-0.0701563	0	0	0.292692	-0.0610768	-0.357048	0.166192	-0.151798	0	0	-0.397683	-0.00596455	0.175837	-0.156898	-0.443476	0.29836	0.779728	0.879251	0	0	0.0645838	-0.454372	0.256997	0.645201	1.34332	0	0
0.08	-1.32997	1.52538	-0.248348	0.930331	1.68715	1.05147	-0.240162	0.0710428	-0.187927	0.0497097	-0.0927548	0	0	0.294191	-0.0606537	-0.346731	0.105637	-0.165447	0	0	-0.392375	-0.0018416	0.181101	-0.158054	-0.443583	0.295514	0.781092	0.885456	0	0	0.0599452	-0.45227	0.255768	0.640902	1.34032	0	0
0.09	-1.40818	1.52449	-0.173408	0.930041	1.67419	1.04887	-0.210415	0.0557688	-0.276301	0.153588	-0.0664202	0	0	0.293363	-0.0551029	-0.336714	0.0518921	-0.176232	0	0	-0.387689	-0.00179212	0.181478	-0.162124	-0.442752	0.290795	0.785056	0.891799	0	0	0.0526344	-0.453165	0.254764	0.640381	1.33719	0	0
0.1	-1.48248	1.52137	-0.102792	0.929713	1.66126	1.04656	-0.218145	0.0572084	-0.276307	0.159725	-0.0618836	0	0	0.293553	-0.0534338	-0.324962	0.00742977	-0.181089	0	0	-0.383583	-0.000109268	0.181814	-0.163125	-0.442164	0.289681	0.785816	0.896151	0	0	0.046023	-0.453612	0.25341	0.638092	1.33539	0	0
0.11	-1.54028	1.51882	-0.0475007	0.92948	1.64811	1.04432	-0.229437	0.0598951	-0.268025	0.156641	-0.0617145	0	0	0.297686	-0.053319	-0.319725	0	-0.181035	0	0	-0.379852	0.000599434	0.180748	-0.163506	-0.44085	0.289568	0.785223	0.898333	0	0	0.0397592	-0.454685	0.251316	0.635324	1.3341	0	0
0.12	-1.58009	1.51697	-0.00911314	0.929354	1.63474	1.04225	-0.24188	0.0620369	-0.255806	0.151947	-0.0632169	0	0	0.301483	-0.0525714	-0.310492	0	-0.178697	0	0	-0.376083	0.000348866	0.177511	-0.162758	-0.438475	0.291073	0.782598	0.901075	0	0	0.0332989	-0.456565	0.248967	0.631728	1.332	0	0
0.13	-1.38363	1.51196	-0.197806	0.930016	1.62028	1.04169	-0.290797	0.111261	-0.272409	0.0606346	-0.0827922	0	0	0.289958	-0.0514935	-0.297116	0	-0.17217	0	0	-0.385199	0.00481155	0.164414	-0.159301	-0.43555	0.29556	0.778154	0.90601	0	0	0.0254666	-0.459689	0.245192	0.628515	1.3273	0	0
0.14	-1.6349	1.52307	0.0479587	0.929785	1.60683	1.03781	-0.208826	0.0242287	-0.359745	0.307722	-0.0378213	0	0	0.307618	-0.038203	-0.288165	0	-0.162623	0	0	-0.364563	-0.00982425	0.158268	-0.159048	-0.428654	0.299616	0.770616	0.912982	0	0	0.0130477	-0.466729	0.243628	0.627896	1.3181	0	0
0.15	-1.58273	1.52189	-0.00192345	0.92982	1.59263	1.03678	-0.229359	0.0249448	-0.343463	0.295768	-0.0423528	0	0	0.307178	-0.0364258	-0.278526	0	-0.161434	0	0	-0.365054	-0.0110582	0.152353	-0.156912	-0.423467	0.303385	0.763062	0.914332	0	0	0.00967347	-0.469688	0.242741	0.620491	1.31493	0	0
0.16	-1.49546	1.52399	-0.0859997	0.930157	1.57792	1.03584	-0.241042	0.0191656	-0.340289	0.309423	-0.0537367	0	0	0.304072	-0.0303967	-0.269385	0	-0.162469	0	0	-0.364048	-0.0152796	0.142168	-0.152736	-0.416931	0.31176	0.750782	0.91763	0	0	0.00359091	-0.473784	0.241945	0.611648	1.30707	0	0
0.17	-1.39726	1.52633	-0.180881	0.930581	1.56273	1.03494	-0.249856	0.0112693	-0.342402	0.330395	-0.0666011	0	0	0.303297	-0.0252891	-0.267668	0.0342092	-0.163628	0	0	-0.361914	-0.0200393	0.133433	-0.150657	-0.409883	0.319678	0.737319	0.92019	0	0	-0.00131546	-0.477729	0.243595	0.600662	1.29771	0	0
0.18	-1.26508	1.52792	-0.311041	0.93099	1.54701	1.0342	-0.257807	0.00267121	-0.344528	0.354385	-0.0825508	0	0	0.299473	-0.0203084	-0.265843	0.0702203	-0.165686	0	0	-0.359396	-0.0249331	0.126615	-0.149404	-0.402618	0.328095	0.721505	0.922474	0	0	-0.00591661	-0.481403	0.247425	0.587613	1.2866	0	0
0.19	-1.1166	1.52851	-0.458656	0.9314	1.53087	1.03359	-0.263674	-0.00672978	-0.347612	0.381859	-0.105565	0	0	0.293055	-0.0144999	-0.26241	0.101585	-0.17479	0	0	-0.35573	-0.0298489	0.120407	-0.147886	-0.395198	0.338672	0.702884	0.925313	0	0	-0.0108401	-0.485141	0.254276	0.572839	1.27124	0	0
0.2	-0.978572	1.52888	-0.596483	0.931862	1.51459	1.03308	-0.265444	-0.0174389	-0.351767	0.413428	-0.136663	0	0	0.287395	-0.00787787	-0.262784	0.127099	-0.199169	0	0	-0.350496	-0.0355107	0.114087	-0.145466	-0.387323	0.351621	0.681908	0.929076	0	0	-0.0170464	-0.48952	0.261894	0.558661	1.25138	0	0
0.21	-0.642964	1.49618	-0.915732	0.933563	1.49744	1.03686	-0.338544	0.016658	-0.414952	0.16944	-0.359061	0	0	0.247056	-0.0149262	-0.265017	0.14634	-0.238626	0	0	-0.383659	-0.0219274	0.0969618	-0.139694	-0.384063	0.363607	0.668948	0.92833	0	0	-0.0156876	-0.495075	0.283642	0.545827	1.21694	0	0
0.22	-0.92	1.54033	-0.649286	0.933022	1.4832	1.03172	-0.239978	-0.0378975	-0.33576	0.517839	-0.211653	0	0	0.269821	0.0224147	-0.189148	0.102966	-0.279271	0	0	-0.325208	-0.051626	0.0913276	-0.133775	-0.365081	0.381667	0.630676	0.931482	0	0	-0.0284557	-0.502255	0.287779	0.528302	1.19929	0	0
0.23	-0.421581	1.46482	-1.10789	0.936543	1.46415	1.03966	-0.327643	0.00325215	-0.698132	0.152434	-0.698132	0	0	0.20607	-0.0144428	-0.254779	0.192441	-0.25654	0	0	-0.406468	-0.0178016	0.0564675	-0.139206	-0.369181	0.373812	0.648995	0.931334	0	0	-0.0308256	-0.509311	0.295887	0.534126	1.17289	0	0
0.24	-0.487728	1.4827	-1.04797	0.937181	1.45075	1.0386	-0.34473	0.00541319	-0.425655	0.164794	-0.698132	0	0	0.228634	-0.0126347	-0.235171	0.225428	-0.237103	0	0	-0.382174	-0.0243678	0.054195	-0.131382	-0.360695	0.383361	0.624729	0.932935	0	0	-0.0304119	-0.506193	0.29624	0.514051	1.16279	0	0
0.25	-0.433711	1.47784	-1.09373	0.938402	1.43614	1.0398	-0.33958	-0.00151099	-0.439316	0.16636	-0.698132	0	0	0.22243	-0.0111444	-0.220204	0.26134	-0.219735	0	0	-0.386081	-0.0252772	0.0397171	-0.12828	-0.354534	0.387878	0.615434	0.931718	0	0	-0.0329162	-0.508855	0.292267	0.507461	1.15546	0	0
0.26	-2.48817	1.54909	0.91614	0.935075	1.42627	1.02935	-0.164752	-0.0658959	0.014022	0.610038	-0.438184	0	0	0.342156	0.0114255	-0.204055	0.313724	-0.182951	0	0	-0.261937	-0.0711431	0.062069	-0.115915	-0.335522	0.429067	0.560977	0.921887	0	0	-0.0478046	-0.510639	0.290466	0.484533	1.14784	0	0
0.27	-0.46086	1.53416	-1.08512	0.938388	1.41083	1.03568	-0.194327	-0.0699335	-0.206325	0.545647	-0.698132	0	0	0.277783	0.013481	-0.197061	0.322575	-0.173914	0	0	-0.322012	-0.0589071	0.0340238	-0.110449	-0.34002	0.43486	0.570023	0.911626	0	0	-0.0398895	-0.513905	0.291959	0.487373	1.13941	0	0
0.28	-0.178729	1.559	-1.3739	0.937418	1.39796	1.03288	-0.121705	-0.0906734	-0.189814	0.741507	-0.642946	0	0	0.296673	0.0277796	-0.189442	0.342931	-0.154625	0	0	-0.295317	-0.0772134	0.0331196	-0.116172	-0.332958	0.432654	0.568402	0.914669	0	0	-0.0455592	-0.524306	0.295165	0.492635	1.13124	0	0
0.29	0.307688	1.56239	-1.86304	0.937412	1.38539	1.03294	-0.0878676	-0.0982162	-0.158071	0.794492	-0.687349	0	0	0.292714	0.032913	-0.184383	0.353904	-0.139258	0	0	-0.292451	-0.0819418	0.0324432	-0.11705	-0.331814	0.432662	0.569614	0.916682	0	0	-0.0410508	-0.529683	0.302071	0.494134	1.12459	0	0
0.3	2.89591	1.55551	1.81444	0.935606	1.37452	1.03164	-0.047109	-0.0877158	0.056633	0.816384	-0.698132	0	0	0.311027	0.0306854	-0.18223	0.367484	-0.122368	0	0	-0.268945	-0.0876392	0.0480341	-0.115062	-0.328925	0.435193	0.563316	0.917069	0	0	-0.0319632	-0.532598	0.312027	0.489386	1.11935	0	0
0.31	2.71173	1.55365	1.99256	0.935013	1.36229	1.03224	-0.0131287	-0.0897719	0.0740275	0.865321	-0.698132	0	0	0.300299	0.0335193	-0.187211	0.373331	-0.109079	0	0	-0.269699	-0.0915636	0.0512977	-0.117348	-0.33043	0.433124	0.571045	0.916207	0	0	-0.026101	-0.538746	0.319003	0.495033	1.11508	0	0
0.32	2.57924	1.5538	2.11701	0.934238	1.35021	1.03323	0.0186316	-0.0904548	0.0915568	0.908892	-0.698132	0	0	0.285357	0.034048	-0.19789	0.375037	-0.096931	0	0	-0.273097	-0.0941029	0.0568593	-0.120189	-0.333259	0.428244	0.581521	0.91602	0	0	-0.0198785	-0.54464	0.325067	0.503198	1.11223	0	0
0.33	2.55924	1.55292	2.12755	0.933316	1.3383	1.03417	0.0494642	-0.0871538	0.12104	0.94824	-0.698132	0	0	0.271407	0.0329038	-0.211135	0.374563	-0.0861014	0	0	-0.274092	-0.0954161	0.0637353	-0.123345	-0.336537	0.422628	0.592203	0.918108	0	0	-0.0138016	-0.549535	0.329527	0.511306	1.11181	0	0
